# xmcd CD database file
#
# Track frame offsets:
#	187
#	86922
#	105375
#	126117
#	148412
#
# Disc length: 2264 seconds
#
# Revision: 0
# Processed by: cddbd v1.5.1PL2 Copyright (c) Steve Scherf et al.
# Submitted via: CDex 1.51
#
DISCID=4408d605
DTITLE=Mike Oldfield - Platinum
DYEAR=1979
DGENRE=New Age
TTITLE0=Platinum (Airborne_Platinum_Charleston_North Star/Platinum Finale)
TTITLE1=Woodhenge
TTITLE2=Sally
TTITLE3=Punkadiddle
TTITLE4=I Got A Rhythm
EXTD=YEAR: 1979
EXTT0=
EXTT1=
EXTT2=
EXTT3=
EXTT4=
PLAYORDER=
